<svg xmlns="http://www.w3.org/2000/svg" fill="none" viewBox="0 0 64 64">
  <path fill="#66C5F1" d="M40.75 15a16.15 16.15 0 0 0-1.75.91H23.84c-.68.4-1.33.87-1.95 1.37H6.73c-.52.42-1.02.88-1.5 1.36h53.53a17.04 17.04 0 0 0-5.2-3.64H40.76Z"/>
  <path fill="#D772EC" d="M2.5 22.29c-.25.44-.49.9-.7 1.36h60.4a18.42 18.42 0 0 0-2.33-3.75H34.45c-.27.33-.53.67-.77 1.02H18.52c-.3.44-.6.9-.86 1.37H2.5Z"/>
  <path fill="#F64F39" d="M16.06 25.93h15.16c.11-.34.23-.69.36-1.02h31.15c.46 1.2.8 2.45 1.01 3.75H.25c.08-.46.17-.91.28-1.36h15.15c.11-.46.24-.92.38-1.37Z"/>
  <path fill="#FA9D2E" d="M30.33 30.94H15.17a20.09 20.09 0 0 0-.01 1.37H0c.01.46.04.91.08 1.37h63.84a19.93 19.93 0 0 0-.01-3.76H30.4c-.04.34-.06.68-.08 1.02Z"/>
  <path fill="#FFCE43" d="M.77 37.32c.13.46.28.92.45 1.37h61.56c.44-1.2.78-2.46.98-3.76h-33.2l.18 1.02H15.58c.1.46.22.92.35 1.37H.77Z"/>
  <path fill="#1DCDA1" d="M4.04 43.7c-.35-.44-.68-.9-.98-1.37H18.2c-.28-.44-.55-.9-.8-1.37h15.16a18.7 18.7 0 0 1-.51-1.02h30.2a18.44 18.44 0 0 1-2.3 3.76H4.04Z"/>
  <path fill="#398AC7" d="M7.96 47.34c.78.53 1.6.98 2.47 1.37h43.14a16.8 16.8 0 0 0 5.3-3.76H35.45c.34.36.7.7 1.06 1.02H21.35c.56.5 1.15.96 1.77 1.37H7.96Z"/>
</svg>
