<svg width="160" height="160" viewBox="0 0 160 160" fill="none" xmlns="http://www.w3.org/2000/svg"><path d="M78.8559 44.5467C98.2375 44.0332 114.363 59.3334 114.868 78.7153C115.373 98.0971 100.066 114.216 80.6836 114.712C61.3138 115.208 45.2072 99.9125 44.7026 80.543C44.1981 61.1734 59.4865 45.0599 78.8559 44.5467Z" fill="white"/><path d="M96.6617 74.7263C98.6103 74.6408 98.1843 76.1642 99.5233 75.0329C99.7469 74.844 101.72 74.7035 102.075 74.6836L102.06 76.2193C99.4571 76.2357 99.3396 76.2792 99.3322 78.8974L101.761 78.9096C101.81 78.9101 101.948 78.961 102.003 78.9792C102.138 79.3392 102.085 80.0722 102.079 80.4857C99.7675 80.4538 97.394 80.4802 95.0735 80.4664C95.115 78.2842 94.4005 75.845 96.6617 74.7263Z" fill="black"/><path d="M96.852 76.2491C97.1013 76.2352 97.479 76.2126 97.7037 76.3077C98.4748 76.6341 98.5453 78.2272 98.2743 78.8743L98.0874 78.9271L96.3929 78.9055C96.3604 78.054 96.1553 76.8348 96.852 76.2491Z" fill="white"/><path d="M68.2871 95.2832C69.6529 95.2566 72.6757 94.9808 73.6084 95.9262C74.9841 97.3206 73.1588 98.5881 73.176 99.0571L73.6619 99.4188C74.0142 100.103 74.0438 101.301 74.0935 102.083C73.626 102.089 73.0073 102.121 72.5613 102.033C72.4839 99.5106 72.3899 99.3895 69.8714 99.4337C69.8121 100.266 69.8329 101.254 69.8308 102.099C69.3935 102.072 68.7985 102.087 68.3483 102.085C68.3078 99.8179 68.2874 97.5506 68.2871 95.2832Z" fill="black"/><path d="M69.87 96.3711C71.2207 96.3425 73.1914 96.1157 72.2774 98.1497C71.6727 98.4392 70.5105 98.3584 69.8221 98.3522C69.8077 97.6665 69.8374 97.0547 69.87 96.3711Z" fill="white"/><path d="M99.8933 53.9131C98.7617 53.36 95.7215 52.9715 95.1617 52.4347C95.089 52.0855 95.0138 51.5985 95.2776 51.3467C96.0029 51.4009 101.042 52.8704 102.07 53.1576L102.057 54.5211C101.082 54.6208 99.8322 54.9247 98.8965 55.2151L98.9526 55.5089C98.8394 55.6037 98.8082 55.6432 98.675 55.7104C99.4196 55.9889 101.176 56.2664 102.029 56.4128C102.067 56.863 102.062 57.3952 102.07 57.8528C101.095 58.0953 95.4593 59.608 95.1073 59.376C94.9817 58.2061 95.3195 58.237 96.3284 57.9773C96.9325 57.8218 98.9638 57.4234 99.3911 57.0884C98.8258 56.5262 95.7373 56.7688 95.0669 55.6432C95.0341 55.315 94.9815 55.1704 95.1571 54.9C95.9045 54.5667 98.9613 54.0614 99.8933 53.9131Z" fill="black"/><path d="M98.675 55.7101C98.3354 55.7037 98.1865 55.7136 97.8532 55.6087L97.8066 55.4564C98.1839 55.2078 98.4391 55.2346 98.8966 55.2148L98.9526 55.5086C98.8395 55.6035 98.8083 55.643 98.675 55.7101Z" fill="white"/><path d="M95.0547 60.4958L102.078 60.4893C102.074 60.9859 102.095 61.5201 102.105 62.02C100.648 62.8789 98.8988 63.9293 97.5204 64.89C98.8952 64.8155 100.66 64.8651 102.064 64.8688C102.067 65.3755 102.166 66.0364 101.938 66.3947L95.0768 66.3745L95.0699 64.8186C96.1215 64.3153 98.8319 62.5344 99.9701 61.8255C98.4743 61.9268 96.6298 61.8818 95.1029 61.8778L95.0547 60.4958Z" fill="black"/><path d="M95.068 67.6168C96.1958 67.6032 97.3576 67.6008 98.4835 67.5888C100.707 67.5651 102.131 67.9953 102.229 70.5513C102.366 74.168 98.6858 73.6302 96.1933 73.5943C95.8489 73.6042 95.4814 73.66 95.2067 73.4677C94.9665 73.1511 95.0522 72.4602 95.0614 72.0272C96.0243 72.0415 100.173 72.3109 100.635 71.5256C102.482 68.3902 96.7604 69.1466 95.0783 69.1535L95.068 67.6168Z" fill="black"/><path d="M95.2733 84.5755L96.9997 84.4932C96.6675 85.6839 96.8504 85.6689 95.6722 86.014C95.0543 86.1949 94.5471 87.1978 94.8385 87.8727C96.6877 89.3344 97.5002 82.6294 100.756 86.6689C100.857 88.4909 100.544 89.9804 98.8181 90.9046C98.2063 91.1164 97.4126 91.3047 96.9803 90.6491C97.1084 89.5264 99.0607 89.7776 99.441 88.5153C99.5648 88.1049 99.7535 87.885 99.5605 87.3941C99.3263 87.1356 99.2936 87.1115 98.9507 87.0531C97.7817 87.2579 96.3633 90.1102 95.1865 89.7007C92.2354 88.6738 93.6954 85.7573 95.2733 84.5755Z" fill="black"/><path d="M86.9886 93.6705C87.973 93.3482 88.762 94.0805 89.4016 94.7007C87.4079 95.9963 88.4325 94.9205 86.3192 94.9661C86.1374 94.9701 85.9588 95.1388 85.8743 95.2273C85.6781 95.4323 85.6668 95.9616 85.7302 96.1782C86.0218 97.1735 89.0793 95.652 90.2289 96.6261C90.6402 96.9748 90.7416 97.0011 90.8478 97.5051C90.974 98.1039 90.7624 98.8508 90.4105 99.3204C89.6537 100.33 88.9252 100.638 87.7656 100.862C86.8831 100.923 85.4314 100.635 85.539 99.5018C85.7126 99.1524 86.1313 99.0484 86.5081 98.8995C87.1468 99.4145 87.1913 99.5744 88.0532 99.4998C88.5206 99.4593 89.7223 98.9712 89.507 98.3776C89.0348 96.7324 85.878 98.6343 84.9658 97.6952C83.1009 95.7754 85.0653 93.9851 86.9886 93.6705Z" fill="black"/><path d="M63.2998 95.2577C63.8097 95.2316 64.4492 95.2711 64.969 95.2888C65.7191 97.4909 66.7813 99.8844 67.4103 102.096L65.8436 102.082C65.7248 101.54 65.6728 100.698 65.1214 100.539C63.1283 100.504 62.9135 100.077 62.3561 102.072L60.8086 102.091C61.4867 100.02 62.7932 97.2243 63.2998 95.2577Z" fill="black"/><path d="M63.989 97.0947C64.3548 97.4691 64.9911 98.8841 64.8439 99.387L64.5737 99.4291C64.0455 99.4629 63.6903 99.6163 63.4213 99.1402C63.3739 98.772 63.8404 97.5838 63.989 97.0947Z" fill="white"/><path d="M92.7563 89.0088C93.1309 89.1084 93.3823 89.5783 93.6149 89.9123C93.1198 90.4086 92.7537 90.7436 92.2157 91.1929C93.3253 92.4651 95.0006 94.024 96.2346 95.2965L95.1415 96.4253C94.8204 95.9902 94.1845 95.3781 93.7892 94.9741C92.8998 94.076 91.9944 93.194 91.0735 92.3283C90.5952 92.863 90.2733 93.2647 89.8443 93.8408C89.4858 93.535 89.1307 93.2252 88.7793 92.9113C90.1087 91.6436 91.4274 90.2956 92.7563 89.0088Z" fill="black"/><path d="M80.3098 95.2734L80.3583 96.5787C79.6818 96.542 78.9083 96.5453 78.2232 96.5326L78.2312 100.016L78.2324 102.09L76.7022 102.085L76.7034 96.5434C76.1632 96.5687 75.2536 96.7041 74.8541 96.4308C74.6123 96.136 74.6901 95.6841 74.7068 95.2842L80.3098 95.2734Z" fill="black"/><path d="M81.9512 94.9945C82.3379 94.9443 82.4724 94.9133 82.8614 94.9736C83.3088 95.5494 83.1431 99.1642 83.4165 100.058C83.4728 100.242 83.6174 101.571 83.5915 101.792L83.3839 101.847C82.998 101.861 82.4927 101.914 82.1425 101.786C81.9584 101.06 81.342 95.7196 81.6073 95.1128L81.9512 94.9945Z" fill="black"/><path d="M101.754 43.1934C101.971 43.2015 101.87 43.1694 102.056 43.3194C102.107 43.7902 102.112 44.1285 102.113 44.6034L100.538 45.1493C100.521 46.0461 100.547 46.9302 100.569 47.826L102.08 48.2213L102.09 49.7707C100.948 49.4667 99.458 48.8355 98.3302 48.3932C97.2402 48.0158 96.1382 47.5725 95.0605 47.1546L95.0711 45.6595C96.9566 45.0776 99.8052 43.915 101.754 43.1934Z" fill="white"/><path d="M99.1702 45.6328L99.341 45.7252C99.4611 46.142 99.4321 46.8885 99.4347 47.3469L97.9517 46.8469C97.6788 46.7708 97.5634 46.7278 97.3052 46.6108L97.2578 46.4259C97.534 46.1301 98.6945 45.7991 99.1702 45.6328Z" fill="black"/><path d="M95.0586 37.7236C96.612 38.5323 97.9943 39.6656 99.586 40.2127C100.217 40.4296 101.373 40.3415 102.083 40.3148L102.075 41.8204C100.039 41.7651 99.7341 41.615 97.9764 42.683C97.0022 43.2547 96.0337 43.836 95.0711 44.4269L95.0683 42.6951C96.0094 42.1928 96.9256 41.5905 97.9178 41.0636C96.9976 40.6283 96.0902 39.9401 95.0664 39.4547L95.0586 37.7236Z" fill="white"/></svg>