<svg xmlns="http://www.w3.org/2000/svg" width="138" height="120" fill="none"><path fill="#000" d="M75.725 13.475c7.685.29 24.36-3.625 28.565 7.105-1.015-1.16-1.45.87-3.48.435-.145-.725.29-.87.29-1.45-2.755-.58-7.685.29-11.02-1.16C81.67 20 70.215 20.29 61.66 24.06 53.395 40.3 47.885 58.425 40.49 74.955c-2.465 6.96-4.495 14.355-7.54 20.59-.29 4.205-3.045 8.845-3.19 13.05 1.74.145.435-2.32 2.32-2.03-1.74 3.77-.87 6.525-1.015 11.165-1.74.435-1.74 1.305-4.06.725-.58-.87-1.45-1.595-1.74-2.9-1.885-1.16-2.32-4.06-3.045-6.525 2.03-13.92 6.67-24.36 11.165-35.525.435-2.465.725-4.93 2.32-6.235 3.915-12.905 9.715-22.91 13.34-35.815 1.16-.725 2.32-3.19 2.03-4.35-15.37 4.64-32.045 13.63-47.27 18.85C1.63 44.795.035 41.75.47 38.995c4.785-1.16 8.845-4.64 13.05-4.93.87-.29.87-1.16 1.45-1.45.435 0 .435.58.725.725.145-1.74 1.74 0 1.305-1.885 1.595-.29 2.32.145 3.19-1.015-.29.58 1.74.58 1.45 0 1.015-.29-.145 1.74.87 1.45.58-2.465 3.045-3.19 5.365-4.06 0 1.015-.87 1.16-.87 2.175 2.465 0 1.015-1.74 1.885-2.465.87.435.145 1.305 2.03 1.74.435-.58-.725-1.16-.145-2.465 1.015 0 1.74.145 1.305-1.16.725.29.435 1.74 1.305 1.885 0-.87-.435-2.61 1.45-2.61-1.015 1.595-.58 2.9-.145 4.785 1.305-.87.58-1.015 2.32-.435.145-1.885-2.32-1.74-1.305-3.625.58 1.16 2.03 1.305 2.03 2.9 1.305-.29 3.19.145 3.19-1.305 1.16 1.015 1.015-.87 2.61-.435-.145-.87-1.74.145-1.305-1.16 5.075.58 11.745-.58 11.89-6.67-.29-.435-2.03.725-3.045.87.145-1.45 1.74-1.74 3.48-1.595C58.18 12.025 60.5 4.92 65.72.135c2.61-.145 5.365 1.74 8.265 2.465.145 1.015.435 2.465 0 2.9-.87 0-1.45-.145-1.885-.435-1.595 3.045-4.205 5.655-5.655 8.7 1.305.58 3.915 1.015 5.365 0v1.015c.725-.29.435-1.45 1.885-1.015 1.45 0 0 .435.435 1.45a6.181 6.181 0 0 0 1.595-1.74ZM95.01 16.81c1.74-.435 2.755.145 3.915-.58-1.45-.435-3.045-.725-4.205-1.595.29 1.45-1.015-.725-1.885-.58 0 .725.87 1.015.145 1.16-.87-.435-1.305-1.305-2.61-1.16-.145.725.725 1.015.145 1.16-.725-.725-1.305-1.45-1.885-.29-.58-1.305-3.045-.87-3.625-.87-.29.725 1.16 1.595.145 1.885-.435-.435-.58-1.305-1.015-1.885-1.45 0-1.885.87-3.19.87-.145.725.29 2.175-1.16 1.74.435-.725-.145-2.32-1.305-2.175 0 .435.145 1.015-.29 1.015 0-.725-.29-1.305-.87-1.45.29 1.45-1.015 1.16-1.45.58-.435 1.16-1.885 1.16-2.61 2.03.725.145 2.03-.435 1.885.87-1.305 0-2.03-.29-3.045-.58.145 1.45-2.9.29-2.32 2.175 2.61-.29 4.06-1.74 6.525-.29 1.74-2.175 6.09-.29 7.975-2.9-.29 2.03 2.61.725 3.77 1.015.58 0 0-1.16.725-1.305l.435 1.45c1.16-.87 3.915-.145 4.785-.435-.58-.29-1.16-.29-1.305-.725.725.145 2.465-.435 2.32.87Zm-36.685-.145c.435-.58.725-1.45.87-2.175-1.015-.29-1.74 1.595-.87 2.175Zm20.01 0c-.435 0-.58-1.015-.145-1.16 0 .435.58.87.145 1.16Zm-2.175.29c0-.58.435-.725 1.305-.725 0 .725-.435.87-1.305.725Zm-8.99 2.175c.725.725 2.32.725 2.175-.29-.435-.435-2.03-.725-2.175.29Zm-18.125 2.9c-1.16.435-.58-1.16-1.45-.87.145-1.305 1.16 0 1.74-.87 0 .435.725.435 1.16.725-.29.435-1.16.435-1.45 1.015Zm-2.61-1.45c1.015.29.725 1.74-.29 1.45-.145-.725.29-.87.29-1.45Zm-7.54 4.785c-.87-.145-.87-1.015-.87-1.885 1.74.725 5.8-3.77 7.83-.725-.87.29-.87-.725-1.45-.725 0 .58.145 1.305-.29 1.45v-1.015c-.725-.145-.725.29-.725.725-1.45-.145-.725 1.885-1.74.29-1.16.435.435.87.145 1.45-1.595.145-2.755-1.595-2.9.435Zm5.22-1.885c.145.58-.725.435-.725-.29.29 0 .435.29.725.29Zm-6.67 2.175c-.87-.145-2.03-.29-1.885-1.74.29.87 2.03.435 1.885 1.74Zm12.18 9.86c2.03-2.175 4.64-7.105 3.915-9.425-1.305 3.19-2.9 5.945-3.915 9.425ZM38.46 27.54c.145-.58 2.61-1.595 2.465-.29-1.74-.58-1.45 1.16-2.465.29Zm-7.25 0c0 1.595 2.465 2.465 3.045 2.32-.725-1.16-1.885-1.885-3.045-2.32Zm-9.28 2.175c-.29.58-.87.725-1.74.725.29-.435.725-.87 1.74-.725Zm2.61 0c0 .58-.145 1.305.58 1.45.29-.58.29-1.305-.58-1.45Zm4.06.29c-.29 1.16 1.595 1.595 1.74.725-.725-.145-.725-1.015-1.74-.725Zm-3.19 2.61v-.725h-.725v.725h.725Zm20.3 13.34c-2.03 3.48-3.48 7.685-4.205 11.455 1.015 0-.145-1.74 1.74-1.74.58-6.235 5.365-13.485 6.525-19.865-2.32 2.61-3.335 5.655-4.06 10.15Zm4.35-3.625c0-.145 0-.435.29-.29l-.145-.725h-.725c.145.145.145.435-.29.29v.725h.87Zm-2.03 2.9c.87-.145 1.885-1.595 1.015-2.32-.145 1.015-1.16 1.305-1.015 2.32Zm-.87 1.885c.435 0 .725.435.725 0s-.58-.435-.725 0Zm.435 1.45v-.725h-.58v.725h.58Zm-2.32 5.8c.58-.87.87-1.45.29-2.175 0 .58-1.015 1.885-.29 2.175Zm-.87 1.015c.29 0 .725 0 .725-.29-.29 0-.725 0-.725.29Zm-.87 2.03.725.145-.145-.725-.725-.145.145.725Zm-2.9.145c-5.51 15.225-12.615 31.03-16.385 46.98 2.32-2.465 2.03-7.25 4.06-9.715.725-3.625 2.03-8.555 3.915-11.31-.29-2.9 3.045-5.655 3.045-10.15 1.305.725.435-.145.435-1.015 2.465-2.03 1.595-6.525 4.205-8.265-1.015-2.9 2.9-4.64.725-6.525Zm1.74 3.19c1.015-.29 1.16-1.45 1.16-2.61-.87.29-1.015 1.45-1.16 2.61h-.29c-.29.29-.58 1.015 0 1.015.145-.29.435-.58.29-1.015Zm-1.305 2.32c.58-.145 1.305-.145 1.16-.87h-.725c0 .29-.29.58-.435.87Zm-.145 1.45c1.16.29.87-1.74-.145-1.16l.145 1.16Zm-.87 1.74c.29 0 .58.58.58 0 0-.29-.58-.435-.58 0Zm-.58 2.9c-.145-.87 1.45-1.45.29-2.175-.145.58-1.305 1.74-.29 2.175Zm-1.74 2.755c.725-.29 1.74-.725 1.595-2.03-1.45-.145-1.16 1.305-1.595 2.03Zm-.145 2.9c-.145-1.015 1.305-1.595-.145-2.175-.29.725-1.16 1.885.145 2.175Zm-.58 1.45v-.725h-.725v.725h.725Zm-3.19 7.105c1.74-1.015 2.175-4.64 2.32-5.945-1.45 1.305-1.45 3.915-2.32 5.945Zm.145.725c.29 0 0-.435-.58-.435-1.885 3.77-3.045 8.41-4.93 12.18.87 1.305-1.45 2.465.29 2.61 1.595-4.93 3.48-9.57 5.22-14.355Zm-8.555 23.635c1.595-1.885 3.48-6.67 2.32-8.99-.725 3.19-1.595 5.945-2.32 8.99Zm-1.015-1.16c0-.29.435-.435.435-.725-.435 0-.58-.435-1.16-.29l.145 1.015h.58Zm-.87 1.305c1.16.58.87-1.45-.145-.87l.145.87Zm1.595 1.885c1.305.58 1.015-2.175-.145-1.885l.145 1.885ZM78.462 7.385c.725-1.885 2.465-2.9 2.465-5.365 2.755.435 5.945.29 7.25 2.175 0 .435 0 1.015.435 1.015-1.45 8.7-5.655 14.79-8.41 21.46-.87 2.32-.725 5.365-2.175 7.975-2.61 4.93-5.22 12.615-7.975 19.865 3.915-2.9 6.96-6.815 11.31-9.425 4.06-.29 4.93 2.9 7.25 3.335 2.32 12.18-5.655 21.17-3.625 34.075 3.045.435 1.74-3.335 4.35-3.335-.725-1.015 1.305-2.61 2.175-4.35 1.305 1.74-2.175 1.74-1.45 4.06 4.495-5.365 9.425-10.15 13.05-16.385 0 3.625-2.32 7.105-4.35 9.135.29 1.015.58-1.015 1.74-.435-2.61 7.685-5.51 14.935-13.34 17.4-8.845-4.205-9.57-12.76-7.975-21.315 1.015-.29-.29 1.74.725 1.45.58-1.595.58-3.77 1.015-5.51-1.015 0-.87 1.305-1.015 2.175-.87-4.785 1.885-8.12 1.74-12.615-1.885.725-4.495 3.77-6.09 6.09-10.15 6.815-12.76 22.185-18.125 32.625-.435 1.16.145 1.015 0 2.61-1.305 1.305-1.015 3.19-1.885 4.35-2.465-.87-4.35-1.16-4.35-5.075-1.305-.435-.725 1.74-1.74.725 2.9-15.225 8.99-27.985 12.615-41.325 5.8-13.92 11.02-28.275 16.675-42.05.29-1.885.29-2.03-.29-3.335Zm-.435 10.15c-.87 1.595-1.015 3.77-2.465 4.785-5.22 18.27-14.645 35.235-18.56 52.49 1.305-1.885 1.74-4.64 3.335-6.09 4.495-17.69 13.92-33.205 17.69-51.185ZM75.562 34.21c0 .435 0 1.015.29 1.16 0-.29.145-.435.435-.435 0-.435-.145-.87-.725-.725Zm-9.86 21.75v.725h-.725c0 .725.145 1.16.725 1.16.58 1.45-1.45.145-1.45 1.015 1.305.29.58 2.175.435 2.9 4.35-4.495 3.48-13.05 8.265-16.675-.58-.29-1.16 1.16-1.45 0 .725-1.015 2.465-3.915 1.16-4.64-1.16 2.61-1.74 5.655-4.06 7.25.725 0 1.015.29 1.16.725-.58 1.16-1.595 1.74-1.45 3.625-.58-.58-1.595-.435-1.45.725.58 0 .87-.58 1.015 0-1.015.725 0 3.48-2.175 3.19Zm12.035-7.54c0 .145 0 .435-.435.29v.725h.725c.145-.145.145-.435.435-.29v-.725h-.725Zm-1.885 2.465c-1.16 0-1.885.58-1.74 1.885.87-.435 1.74-.725 1.74-1.885Zm1.45.725c.145.435 0 1.015.435 1.16 0-.58.87-.29.725-1.16h-1.16Zm-4.64 1.885c-.725 1.305-2.03 2.03-2.61 3.625 1.015-.87 4.06-2.755 2.61-3.625Zm-6.96 4.35v-1.16c.58 0 .58 1.015 0 1.16Zm3.625-.435-1.015 2.175c1.015.29 1.885-1.595 1.015-2.175Zm22.91 17.11c3.77-6.67 8.99-10.73 12.325-17.11 1.305 1.45-1.015 2.32-.435 4.35-.29-.145-.58-.29-.725-.725-3.48 4.495-7.54 10.295-11.165 13.485Zm-9.135-15.95c-.145 3.77-2.9 6.235-1.74 10.15-.87 1.305-2.61 5.8-.435 6.815.29-6.38 2.03-11.31 3.335-16.675-.435 0-.58-.435-1.16-.29Zm-11.6.725c-1.305-.145-1.885.435-1.74 1.74.725-.435 2.03-.435 1.74-1.74Zm-7.975 1.015c.29 1.305-.435 1.45-.29 2.61.87.145 1.74-2.755.29-2.61Zm5.51 4.06v-.725h1.015c.725-1.305-.145-.87-.29-2.175-1.74-.435-3.335 3.19-.725 2.9Zm-4.06-1.16c-1.015 0-1.16 1.015-1.45 1.885 1.16 0 1.305-1.015 1.45-1.885Zm4.06 0v.435c-.145 0-.435-.29 0-.435Zm-6.96 1.45c.435 0 .58.58.725 0 0-.29-.58-.435-.725 0Zm5.075-.29c-.87.29-1.885 2.755-.725 2.9 0-1.45.435-.145 1.16-.435-.145-.87-.58-1.305-.435-2.465Zm-3.915 1.015c0 .58-.145 1.305.29 1.45.29-.29 1.015-1.74-.29-1.45Zm19.865 1.45c.29 0 .725 0 .725-.29-.29 0-.58 0-.725.29Zm.435 2.61c.29-.145.725 0 .725-.435-.29.145-.725 0-.725.435Zm-4.35.725c-.145.435-.58.58-.435 1.45 1.015.58 1.015-1.595.435-1.45Zm.725 6.815v.725h.725v-.725h-.725Zm-23.925 1.45c-.435.58-.435 1.45.29 1.45.58-.435.58-1.305-.29-1.45Zm25.665 2.9c0 .29 0 .435-.29.435v.725c.87.58 1.015-1.305.29-1.16Zm51.487-13.92c.29-1.45 1.16-3.915 3.19-4.64-.29 1.305-.87 2.32-2.175 2.9 0 .58.58.58.725 1.015-1.45 3.77-4.06 6.525-6.09 9.86-.725.58-.725-.29-1.45-.435-.145 3.915-3.77 4.35-4.785 7.54-.725.435-.87 3.77-2.9 2.61.29 1.16.29.725 0 1.885-4.35 3.335-7.83 6.38-14.065 7.25-8.845-2.175-12.905-15.66-7.25-24.36 2.03-3.19 3.48-6.96 5.075-10.44 1.74-2.32 3.48-4.785 5.075-7.395-2.32 1.885-3.915 4.495-5.075 7.395-1.305 1.015-1.885 2.61-2.61 4.205h-.29c3.915-9.57 9.425-17.835 18.125-22.765 3.19 1.305 6.525 2.465 7.975 5.365-.58 1.74-.29 4.35-.725 6.235-6.235 8.7-10.585 18.85-21.025 23.925-1.595.435-1.45-.725-2.61-.725-1.305 3.915-2.61 8.99-.29 12.615 2.61.29 4.495-.435 5.8-1.305 8.845-6.09 15.95-16.53 23.49-22.91-.29-.58-.29-.87.435-1.015 0-.29 0-.435.29-.435 0 .145 0 .435-.29.435 2.755-.145 3.915-4.785 5.8-6.96-.29 6.96-8.265 9.135-10.875 14.79 1.45-.145 3.77-2.61 5.075-5.075.725 0 .725.435 1.45.435ZM121.104 47.84c-6.525 5.075-12.47 12.905-15.225 20.59 4.64-5.655 11.455-11.165 14.21-17.69v.725c1.16-.435 3.045-3.335 1.45-4.35.145 1.45-.145 2.465-1.16 2.9-.29-1.305.87-1.015.725-2.175Zm-8.99.29c-.145.58-.58.725-.725 1.16.725.29 1.595-.87.725-1.16Zm-.725 1.45c-.725 0-1.015.29-1.16.87.725 0 1.015-.29 1.16-.87Zm8.7 1.16c0-.29 0-.725.29-.725 0 .29 0 .725-.29.725Zm2.175-.29c0 .435-.145 1.015.29 1.015 0-.29.145-.435.435-.435-.145-.435-.145-.725-.725-.58Zm-14.21 2.465c1.45-.145 1.45-1.595 2.175-2.175-1.305.145-1.885 1.015-2.175 2.175Zm12.76.29c.725.29 1.45-1.305.725-1.305-.29.435-.58.87-.725 1.305Zm-15.225 7.975c-.145.29-.87 1.45 0 1.595 0-.29.87-1.45 0-1.595Zm27.115 1.885c0 .29 0 .435-.29.29 0-.145 0-.435.29-.29Zm-.29.29c0 .29-.145.435-.435.435 0-.145.145-.435.435-.435Zm-27.985 1.16c-1.74 0-2.03 3.335-.29 3.915-1.16-1.45-.29-2.465.29-3.915Zm-4.35.29h.435c-.145 1.595-.725 2.465-1.45 3.335-.725-1.015.725-2.175 1.015-3.335Zm-1.015 3.335c-.145.29 0 .725-.435.725.145-.29 0-.725.435-.725Zm-.435.725c.29 1.16-.29 1.305-.29 2.175-.58 0-.29.87-1.16.725.145-1.305 1.015-1.595 1.16-2.9h.29Zm2.175 1.015c.29 1.015-1.45 1.885-.29 2.61.145-1.305 3.915-2.61 1.015-3.625 0 .725.58.725.725 1.015-.435.145-.29.725-.725.725 0-.29 0-.725-.725-.725Zm17.835 15.37c4.495-5.51 10.73-10.295 13.775-15.95-5.365 4.93-10.295 10.44-15.225 15.95-1.015.145-1.74.725-1.885 1.74.87-.435 1.74-.725 1.885-1.74h1.45Zm7.54-12.76c-1.16-.145-2.32 1.45-1.45 2.175.29-1.015 1.305-1.16 1.45-2.175Zm-2.9 1.885v1.015c1.16.58 1.16-1.595 0-1.015ZM99.064 75.68c0-.29.58-.725 0-1.015-.145.435-.725.87 0 1.015Zm-1.16-.58c0 .29-.58.725 0 1.015.145-.435.725-.87 0-1.015Zm25.375.58c-.58.145-1.16 0-1.015.87.58 0 .87-.29 1.015-.87Zm-25.375 3.77c-.145-.725 1.16-1.595 0-1.885.29.58-1.015 1.45 0 1.885Zm17.835 11.165v-.725h-.725v.725h.725Zm-2.175.725c.58 0 .87-.29 1.015-.725-.58 0-.87.29-1.015.725Z"/></svg>