<svg width="1285" height="173" viewBox="0 0 1285 173" fill="none" xmlns="http://www.w3.org/2000/svg">
<path d="M1194.42 169.149H1121.3L1123.49 158.986C1128.89 158.986 1133.05 158.514 1135.97 157.568C1139.03 156.623 1141.37 154.574 1142.97 151.423C1144.73 148.272 1146.26 143.466 1147.57 137.006L1165.74 42.4671C1166.62 37.7402 1166.84 34.0374 1166.4 31.3588C1165.96 28.6802 1164.43 26.7894 1161.8 25.6865C1159.17 24.5835 1155.01 24.0321 1149.32 24.0321L1151.29 13.8691H1221.34C1230.24 13.8691 1238.34 14.8933 1245.64 16.9416C1253.08 18.99 1259.07 22.4564 1263.59 27.3409C1268.11 32.0679 1270.38 38.528 1270.38 46.7214C1270.38 54.2845 1269.21 60.7446 1266.87 66.1018C1264.54 71.4591 1261.4 76.0284 1257.46 79.81C1253.52 83.434 1249 86.4277 1243.89 88.7912C1238.93 90.9971 1233.67 92.7303 1228.13 93.9908L1227.91 95.1725C1229.81 96.7482 1231.7 99.348 1233.6 102.972C1235.5 106.438 1237.98 111.638 1241.04 118.571C1244.11 125.504 1248.34 134.958 1253.74 146.933C1256.22 152.132 1258.99 155.441 1262.06 156.859C1265.12 158.277 1269.14 158.986 1274.1 158.986L1272.13 169.149H1224.41C1221.34 159.695 1218.79 151.975 1216.74 145.987C1214.85 139.842 1213.17 134.721 1211.71 130.625C1210.4 126.528 1209.16 122.825 1207.99 119.516C1206.82 116.207 1205.51 112.662 1204.05 108.881C1202.88 105.257 1201.42 102.972 1199.67 102.027C1198.07 101.081 1195.44 100.609 1191.79 100.609H1183.91L1185.88 89.0275L1196.61 89.2639C1206.24 88.6336 1213.97 86.9792 1219.81 84.3006C1225.79 81.4644 1230.17 77.289 1232.94 71.7742C1235.72 66.1019 1237.1 58.7751 1237.1 49.7939C1237.1 44.5943 1236.3 40.1824 1234.69 36.5585C1233.09 32.9345 1230.54 30.1771 1227.03 28.2863C1223.68 26.3955 1219.23 25.4501 1213.68 25.4501C1211.49 25.4501 1209.3 25.5289 1207.11 25.6865C1205.07 25.6865 1202.95 25.8441 1200.76 26.1592L1179.31 137.242C1178.15 143.545 1177.71 148.272 1178 151.423C1178.44 154.574 1180.04 156.623 1182.82 157.568C1185.73 158.514 1190.26 158.986 1196.39 158.986L1194.42 169.149Z" fill="white" fill-opacity="0.3"/>
<path d="M1102.6 169.149H979.797L981.986 158.986C986.802 158.986 990.742 158.592 993.807 157.805C996.871 156.859 999.279 155.047 1001.03 152.369C1002.93 149.532 1004.46 145.199 1005.63 139.369L1023.58 45.5397C1024.74 39.5522 1025.18 35.0616 1024.89 32.0679C1024.6 29.0741 1023.14 27.0258 1020.51 25.9228C1017.89 24.8199 1013.65 24.2684 1007.82 24.2684L1009.79 13.8691H1130.18L1123.4 56.648H1112.23C1112.52 49.5575 1112.16 43.964 1111.14 39.8673C1110.26 35.7706 1108 32.9345 1104.35 31.3588C1100.7 29.6256 1094.87 28.759 1086.84 28.759H1058.6L1034.3 154.732H1059.48C1066.48 154.732 1072.32 154.259 1076.99 153.314C1081.8 152.369 1085.82 150.714 1089.03 148.351C1092.39 145.987 1095.38 142.757 1098 138.66C1100.63 134.406 1103.4 129.049 1106.32 122.589H1116.83L1102.6 169.149ZM1093.84 117.626H1083.78C1085.09 111.008 1085.6 106.202 1085.31 103.208C1085.02 100.057 1083.26 98.0875 1080.05 97.2997C1076.99 96.3543 1071.88 95.8816 1064.73 95.8816H1042.62L1044.81 83.1188H1067.14C1074.29 83.1188 1079.54 82.7249 1082.9 81.9371C1086.4 81.1493 1088.88 79.3373 1090.34 76.5011C1091.8 73.665 1093.11 69.1744 1094.28 63.0293H1104.35L1093.84 117.626Z" fill="white" fill-opacity="0.3"/>
<path d="M883.551 169.148H820.945L822.915 158.985C828.753 158.985 833.204 158.513 836.268 157.567C839.333 156.464 841.595 154.337 843.054 151.186C844.66 148.035 846.046 143.229 847.213 136.769L864.945 44.1206C866.112 38.2907 866.331 34.0364 865.601 31.3579C865.018 28.5217 863.412 26.7097 860.785 25.9219C858.159 25.134 854.291 24.7401 849.184 24.7401L851.373 13.8682H912.665C922.151 13.8682 931.199 14.7348 939.809 16.468C948.565 18.0436 956.299 21.0373 963.012 25.4492C969.871 29.7034 975.271 35.7697 979.211 43.6479C983.297 51.3686 985.34 61.3739 985.34 73.664C985.34 91.4688 982.641 106.516 977.241 118.806C971.841 130.939 964.399 140.708 954.913 148.113C945.573 155.519 934.774 160.876 922.516 164.185C910.257 167.494 897.269 169.148 883.551 169.148ZM885.083 155.676C900.407 155.676 912.957 153.155 922.734 148.113C932.512 142.914 939.736 134.642 944.406 123.297C949.076 111.795 951.411 96.5897 951.411 77.6819C951.411 69.331 950.535 62.0042 948.784 55.7016C947.033 49.399 944.333 44.1994 940.684 40.1027C937.182 35.8484 932.731 32.6971 927.331 30.6488C921.932 28.4429 915.584 27.3399 908.287 27.3399C907.12 27.3399 905.879 27.3399 904.566 27.3399C903.398 27.3399 901.793 27.4187 899.75 27.5763L875.233 155.44C876.838 155.598 878.516 155.676 880.268 155.676C882.019 155.676 883.624 155.676 885.083 155.676Z" fill="white" fill-opacity="0.3"/>
<path d="M707.115 169.144H658.081L660.051 158.982C663.7 158.982 666.91 158.351 669.683 157.091C672.31 155.83 674.936 153.546 677.563 150.237C680.336 146.928 683.547 142.201 687.195 136.056L761.621 12.6826H781.979L799.491 136.529C800.659 144.092 802.702 149.764 805.621 153.546C808.539 157.17 812.48 158.982 817.441 158.982L816.128 169.144H747.393L749.582 158.982C751.479 158.982 753.595 158.745 755.93 158.272C758.265 157.8 760.235 156.539 761.84 154.491C763.592 152.443 764.467 149.134 764.467 144.564C764.467 142.831 764.467 140.94 764.467 138.892C764.467 136.844 764.321 135.032 764.029 133.456L761.621 116.203L761.184 110.058L755.273 48.1347H754.398L717.841 110.058L714.777 116.203L702.737 136.529C701.424 138.892 700.037 141.571 698.578 144.564C697.118 147.558 696.389 150.315 696.389 152.836C696.389 155.358 697.337 157.012 699.235 157.8C701.132 158.588 704.342 158.982 708.866 158.982L707.115 169.144ZM764.905 119.275H709.742L716.309 106.985H763.81L764.905 119.275Z" fill="white" fill-opacity="0.3"/>
<path d="M557.531 169.148H486.388L488.577 158.985C494.56 158.985 499.011 158.434 501.93 157.331C504.994 156.228 507.256 154.022 508.716 150.713C510.321 147.247 511.78 142.047 513.094 135.114L529.73 48.3748C530.898 42.2298 531.481 37.4241 531.481 33.9577C531.481 30.3337 530.241 27.8126 527.76 26.3946C525.279 24.8189 520.828 24.0311 514.407 24.0311L516.377 13.8682H588.396L586.645 24.0311C580.223 24.0311 575.408 24.8189 572.197 26.3946C569.132 27.8126 566.87 30.2549 565.411 33.7213C564.098 37.1877 562.784 42.0723 561.471 48.3748L544.834 135.114C543.521 142.047 542.864 147.247 542.864 150.713C543.01 154.022 544.324 156.228 546.805 157.331C549.431 158.434 553.663 158.985 559.501 158.985L557.531 169.148ZM617.291 97.0624H549.212L551.839 84.0633H620.136L617.291 97.0624ZM652.534 169.148H580.296L582.267 158.985C588.542 158.985 593.212 158.434 596.276 157.331C599.341 156.228 601.53 153.943 602.843 150.477C604.303 147.01 605.689 141.89 607.002 135.114L623.858 48.3748C625.025 42.0723 625.536 37.1877 625.39 33.7213C625.244 30.2549 623.931 27.8126 621.45 26.3946C618.969 24.8189 614.664 24.0311 608.535 24.0311L610.286 13.8682H682.305L680.553 24.0311C674.132 24.0311 669.316 24.8189 666.106 26.3946C662.895 27.8126 660.633 30.2549 659.32 33.7213C658.006 37.1877 656.766 42.0723 655.599 48.3748L638.743 135.114C637.43 141.89 636.846 147.01 636.992 150.477C637.138 153.943 638.524 156.228 641.151 157.331C643.924 158.434 648.375 158.985 654.504 158.985L652.534 169.148Z" fill="white" fill-opacity="0.3"/>
<path d="M381.634 172.219H372.44L380.54 121.168H391.047C391.339 131.252 392.36 139.052 394.112 144.566C395.863 149.924 398.49 153.626 401.992 155.675C405.64 157.723 410.31 158.747 416.002 158.747C421.401 158.747 426.509 157.959 431.325 156.384C436.141 154.651 440.081 151.893 443.146 148.112C446.356 144.172 447.961 138.894 447.961 132.276C447.961 126.762 446.721 122.192 444.24 118.568C441.905 114.787 438.768 111.478 434.827 108.642C430.887 105.805 426.728 103.127 422.35 100.606C417.242 97.4545 412.499 94.2244 408.121 90.9156C403.743 87.4492 400.168 83.2737 397.395 78.3892C394.768 73.5047 393.455 67.4384 393.455 60.1905C393.455 49.4761 395.79 40.4949 400.46 33.2469C405.276 25.9989 411.843 20.5629 420.161 16.9389C428.625 13.1574 438.33 11.2666 449.275 11.2666C454.528 11.2666 458.834 11.7393 462.19 12.6847C465.692 13.6301 468.611 14.5755 470.946 15.5209C473.281 16.4662 475.324 16.9389 477.075 16.9389C478.243 16.9389 479.556 16.6238 481.016 15.9936C482.475 15.2057 483.642 13.6301 484.518 11.2666H492.617L484.08 60.8995H474.23C473.792 46.5611 471.53 36.5557 467.444 30.8834C463.503 25.2111 457.447 22.3749 449.275 22.3749C440.373 22.3749 433.587 24.2657 428.917 28.0473C424.247 31.8288 421.912 37.4224 421.912 44.8279C421.912 49.5548 423.153 53.6515 425.633 57.1179C428.26 60.4268 431.617 63.4205 435.703 66.0991C439.935 68.7777 444.386 71.4563 449.056 74.1349C454.456 77.1287 459.49 80.5163 464.16 84.2979C468.976 88.0794 472.843 92.6488 475.762 98.006C478.827 103.363 480.359 109.981 480.359 117.859C480.359 129.361 477.586 139.13 472.041 147.166C466.641 155.202 459.125 161.347 449.494 165.601C440.008 169.856 429.136 171.983 416.877 171.983C410.019 171.983 404.838 171.352 401.335 170.092C397.833 168.989 395.206 167.886 393.455 166.783C391.85 165.523 390.317 164.892 388.858 164.892C387.107 164.892 385.575 165.601 384.261 167.019C382.948 168.28 382.072 170.013 381.634 172.219Z" fill="white" fill-opacity="0.3"/>
<path d="M1205.3 157.883H1132.17L1134.36 147.72C1139.76 147.72 1143.92 147.247 1146.84 146.302C1149.9 145.356 1152.24 143.308 1153.84 140.157C1155.6 137.005 1157.13 132.2 1158.44 125.739L1176.62 31.2005C1177.49 26.4736 1177.71 22.7708 1177.27 20.0922C1176.84 17.4136 1175.3 15.5228 1172.67 14.4199C1170.05 13.3169 1165.89 12.7655 1160.19 12.7655L1162.17 2.60254H1232.23C1241.14 2.60254 1249.24 3.62671 1256.54 5.67504C1263.98 7.72338 1269.96 11.1898 1274.49 16.0743C1279.02 20.8013 1281.28 27.2614 1281.28 35.4548C1281.28 43.0179 1280.11 49.478 1277.77 54.8352C1275.44 60.1925 1272.3 64.7618 1268.36 68.5434C1264.42 72.1674 1259.89 75.1611 1254.78 77.5246C1249.82 79.7305 1244.57 81.4637 1239.02 82.7242L1238.8 83.9059C1240.7 85.4816 1242.6 88.0814 1244.49 91.7054C1246.39 95.1718 1248.87 100.371 1251.94 107.304C1255 114.237 1259.24 123.691 1264.64 135.666C1267.12 140.866 1269.89 144.174 1272.96 145.593C1276.02 147.011 1280.04 147.72 1285 147.72L1283.03 157.883H1235.3C1232.23 148.429 1229.68 140.708 1227.63 134.721C1225.74 128.576 1224.06 123.455 1222.6 119.358C1221.28 115.261 1220.04 111.559 1218.87 108.25C1217.71 104.941 1216.39 101.396 1214.93 97.6141C1213.77 93.9901 1212.31 91.7054 1210.55 90.76C1208.95 89.8146 1206.32 89.3419 1202.67 89.3419H1194.79L1196.76 77.7609L1207.49 77.9973C1217.12 77.367 1224.86 75.7126 1230.7 73.034C1236.68 70.1978 1241.06 66.0224 1243.84 60.5076C1246.61 54.8353 1248 47.5085 1248 38.5273C1248 33.3277 1247.19 28.9158 1245.59 25.2918C1243.98 21.6679 1241.43 18.9105 1237.92 17.0197C1234.57 15.1289 1230.11 14.1835 1224.57 14.1835C1222.38 14.1835 1220.19 14.2623 1218 14.4199C1215.96 14.4199 1213.84 14.5775 1211.65 14.8926L1190.19 125.976C1189.02 132.278 1188.59 137.005 1188.88 140.157C1189.32 143.308 1190.92 145.356 1193.69 146.302C1196.61 147.247 1201.14 147.72 1207.27 147.72L1205.3 157.883Z" fill="white"/>
<path d="M1113.46 157.883H990.625L992.815 147.72C997.632 147.72 1001.57 147.326 1004.64 146.538C1007.7 145.593 1010.11 143.781 1011.86 141.102C1013.76 138.266 1015.29 133.933 1016.46 128.103L1034.42 34.2731C1035.58 28.2856 1036.02 23.795 1035.73 20.8013C1035.44 17.8075 1033.98 15.7592 1031.35 14.6562C1028.72 13.5533 1024.49 13.0018 1018.65 13.0018L1020.62 2.60254H1141.05L1134.26 45.3814H1123.09C1123.39 38.2909 1123.02 32.6974 1122 28.6007C1121.12 24.504 1118.86 21.6679 1115.21 20.0922C1111.56 18.359 1105.72 17.4924 1097.69 17.4924H1069.45L1045.15 143.465H1070.33C1077.33 143.465 1083.17 142.993 1087.84 142.047C1092.66 141.102 1096.67 139.448 1099.88 137.084C1103.24 134.721 1106.23 131.491 1108.86 127.394C1111.49 123.14 1114.26 117.782 1117.18 111.322H1127.69L1113.46 157.883ZM1104.7 106.359H1094.63C1095.94 99.7412 1096.45 94.9355 1096.16 91.9417C1095.87 88.7905 1094.12 86.8209 1090.91 86.0331C1087.84 85.0877 1082.73 84.615 1075.58 84.615H1053.47L1055.66 71.8522H1077.99C1085.14 71.8522 1090.4 71.4583 1093.75 70.6705C1097.26 69.8827 1099.74 68.0707 1101.2 65.2345C1102.66 62.3984 1103.97 57.9078 1105.14 51.7627H1115.21L1104.7 106.359Z" fill="white"/>
<path d="M894.354 157.883H831.732L833.703 147.72C839.542 147.72 843.994 147.247 847.059 146.302C850.125 145.199 852.387 143.072 853.847 139.92C855.453 136.769 856.839 131.963 858.007 125.503L875.743 32.855C876.911 27.0251 877.13 22.7708 876.4 20.0922C875.816 17.2561 874.21 15.4441 871.583 14.6562C868.955 13.8684 865.087 13.4745 859.978 13.4745L862.167 2.60254H923.475C932.964 2.60254 942.014 3.46914 950.626 5.20235C959.384 6.778 967.121 9.77172 973.835 14.1835C980.696 18.4378 986.097 24.504 990.038 32.3823C994.126 40.1029 996.169 50.1083 996.169 62.3984C996.169 80.2032 993.469 95.2506 988.068 107.541C982.667 119.673 975.222 129.442 965.734 136.848C956.392 144.253 945.59 149.61 933.328 152.919C921.067 156.228 908.075 157.883 894.354 157.883ZM895.887 144.411C911.214 144.411 923.767 141.89 933.547 136.848C943.327 131.648 950.553 123.376 955.224 112.031C959.895 100.529 962.231 85.324 962.231 66.4163C962.231 58.0653 961.355 50.7386 959.603 44.436C957.852 38.1334 955.151 32.9337 951.502 28.8371C947.999 24.5828 943.546 21.4315 938.146 19.3832C932.745 17.1773 926.395 16.0743 919.096 16.0743C917.928 16.0743 916.688 16.0743 915.374 16.0743C914.206 16.0743 912.601 16.1531 910.557 16.3107L886.034 144.174C887.639 144.332 889.318 144.411 891.07 144.411C892.821 144.411 894.427 144.411 895.887 144.411Z" fill="white"/>
<path d="M717.875 157.878H668.829L670.8 147.715C674.449 147.715 677.66 147.085 680.434 145.824C683.061 144.564 685.689 142.279 688.316 138.97C691.09 135.661 694.301 130.934 697.95 124.789L772.396 1.41602H792.759L810.275 125.262C811.443 132.825 813.487 138.497 816.406 142.279C819.325 145.903 823.267 147.715 828.23 147.715L826.916 157.878H758.164L760.353 147.715C762.251 147.715 764.367 147.479 766.703 147.006C769.038 146.533 771.009 145.273 772.615 143.224C774.366 141.176 775.242 137.867 775.242 133.298C775.242 131.565 775.242 129.674 775.242 127.625C775.242 125.577 775.096 123.765 774.804 122.189L772.396 104.936L771.958 98.791L766.046 36.8681H765.17L728.604 98.791L725.539 104.936L713.496 125.262C712.183 127.625 710.796 130.304 709.336 133.298C707.876 136.291 707.147 139.049 707.147 141.57C707.147 144.091 708.095 145.745 709.993 146.533C711.891 147.321 715.102 147.715 719.627 147.715L717.875 157.878ZM775.68 108.009H720.503L727.072 95.7185H774.585L775.68 108.009Z" fill="white"/>
<path d="M568.252 157.883H497.091L499.28 147.72C505.265 147.72 509.717 147.168 512.637 146.065C515.702 144.962 517.965 142.756 519.424 139.448C521.03 135.981 522.49 130.781 523.804 123.849L540.444 37.1092C541.612 30.9642 542.196 26.1585 542.196 22.692C542.196 19.0681 540.955 16.547 538.474 15.1289C535.992 13.5533 531.54 12.7655 525.117 12.7655L527.088 2.60254H599.125L597.373 12.7655C590.95 12.7655 586.133 13.5533 582.922 15.1289C579.857 16.547 577.594 18.9893 576.134 22.4557C574.821 25.9221 573.507 30.8066 572.193 37.1092L555.552 123.849C554.239 130.781 553.582 135.981 553.582 139.448C553.728 142.756 555.041 144.962 557.523 146.065C560.15 147.168 564.384 147.72 570.222 147.72L568.252 157.883ZM628.027 85.7967H559.931L562.559 72.7976H630.873L628.027 85.7967ZM663.279 157.883H591.023L592.994 147.72C599.271 147.72 603.942 147.168 607.007 146.065C610.073 144.962 612.262 142.678 613.576 139.211C615.036 135.745 616.422 130.624 617.736 123.849L634.596 37.1092C635.764 30.8066 636.274 25.9221 636.128 22.4557C635.982 18.9893 634.669 16.547 632.187 15.1289C629.706 13.5533 625.4 12.7655 619.269 12.7655L621.02 2.60254H693.057L691.306 12.7655C684.883 12.7655 680.066 13.5533 676.854 15.1289C673.643 16.547 671.381 18.9893 670.067 22.4557C668.753 25.9221 667.512 30.8066 666.344 37.1092L649.485 123.849C648.171 130.624 647.587 135.745 647.733 139.211C647.879 142.678 649.266 144.962 651.893 146.065C654.667 147.168 659.119 147.72 665.25 147.72L663.279 157.883Z" fill="white"/>
<path d="M392.311 160.952H383.115L391.217 109.901H401.727C402.019 119.986 403.04 127.785 404.792 133.3C406.544 138.657 409.171 142.36 412.674 144.408C416.324 146.456 420.995 147.481 426.688 147.481C432.089 147.481 437.198 146.693 442.015 145.117C446.832 143.384 450.773 140.627 453.838 136.845C457.05 132.906 458.655 127.627 458.655 121.01C458.655 115.495 457.415 110.926 454.933 107.302C452.598 103.52 449.459 100.211 445.518 97.375C441.577 94.5388 437.417 91.8602 433.037 89.3392C427.928 86.1879 423.184 82.9578 418.805 79.649C414.426 76.1826 410.85 72.0071 408.076 67.1226C405.449 62.2381 404.135 56.1718 404.135 48.9239C404.135 38.2094 406.471 29.2283 411.142 21.9803C415.959 14.7323 422.527 9.29632 430.848 5.67233C439.314 1.89078 449.021 0 459.969 0C465.224 0 469.53 0.472696 472.888 1.41808C476.391 2.36348 479.31 3.30887 481.646 4.25425C483.981 5.19964 486.025 5.67233 487.777 5.67233C488.944 5.67233 490.258 5.3572 491.718 4.72695C493.178 3.93912 494.345 2.36347 495.221 0H503.323L494.783 49.6329H484.93C484.492 35.2945 482.23 25.2891 478.143 19.6168C474.201 13.9445 468.143 11.1083 459.969 11.1083C451.065 11.1083 444.277 12.9991 439.606 16.7807C434.935 20.5622 432.599 26.1558 432.599 33.5613C432.599 38.2882 433.84 42.3849 436.322 45.8513C438.949 49.1602 442.307 52.1539 446.394 54.8325C450.627 57.5111 455.079 60.1897 459.75 62.8683C465.151 65.8621 470.187 69.2497 474.858 73.0313C479.675 76.8128 483.543 81.3822 486.463 86.7394C489.528 92.0966 491.061 98.7143 491.061 106.593C491.061 118.095 488.288 127.864 482.741 135.9C477.34 143.935 469.822 150.08 460.188 154.335C450.7 158.589 439.825 160.716 427.563 160.716C420.703 160.716 415.521 160.086 412.018 158.825C408.514 157.722 405.887 156.619 404.135 155.516C402.529 154.256 400.997 153.626 399.537 153.626C397.785 153.626 396.253 154.335 394.939 155.753C393.625 157.013 392.749 158.746 392.311 160.952Z" fill="white"/>
<path d="M190.761 0C189.077 0.75 187.422 1.56122 185.799 2.43105C184.709 3.01549 183.633 3.62641 182.572 4.26303H111.6C108.42 6.17076 105.375 8.30925 102.484 10.6576H31.5127C29.0682 12.6433 26.7338 14.779 24.5215 17.0521H275.092C270.263 12.0908 264.854 7.78392 258.985 4.26303C256.345 2.67893 253.611 1.25393 250.796 0H190.761Z" fill="#66C5F1"/>
<path d="M11.703 34.1045C10.5173 36.1786 9.41172 38.3118 8.39062 40.4991H291.216C288.247 34.1393 284.563 28.2365 280.278 22.9141H161.272C160.024 24.4645 158.827 26.0641 157.684 27.71H86.7117C85.2798 29.771 83.9324 31.9045 82.6748 34.1045H11.703Z" fill="#D772EC"/>
<path d="M75.2054 51.1543H146.177C146.692 49.533 147.251 47.9338 147.853 46.3584H293.7C295.833 51.9461 297.433 57.8325 298.431 63.9434H1.17871C1.53151 61.7827 1.95939 59.6501 2.45971 57.5489H73.4315C73.9472 55.3828 74.5395 53.2501 75.2054 51.1543Z" fill="#F64F39"/>
<path d="M142.016 74.6035H71.0445C70.9802 76.0158 70.9477 77.437 70.9477 78.8666C70.9477 79.5791 70.9557 80.2897 70.9718 80.9981H0C0.0488528 83.1503 0.171346 85.2828 0.365313 87.3926H299.245C299.503 84.5883 299.635 81.7441 299.635 78.8666C299.635 75.8066 299.485 72.7843 299.195 69.8076H142.359C142.204 71.3937 142.09 72.9927 142.016 74.6035Z" fill="#FA9D2E"/>
<path d="M3.58691 104.443C4.21743 106.614 4.92591 108.746 5.709 110.838H293.903C295.997 105.246 297.558 99.3603 298.518 93.2529H143.039C143.292 94.8675 143.588 96.4666 143.925 98.0488H72.9526C73.4127 100.213 73.9494 102.346 74.5587 104.443H3.58691Z" fill="#FFCE43"/>
<path d="M18.9029 134.285C17.2801 132.236 15.7455 130.102 14.3057 127.891H85.2777C83.9324 125.825 82.67 123.691 81.4953 121.496H152.467C151.628 119.928 150.835 118.329 150.087 116.7H291.463C288.55 123.051 284.926 128.953 280.703 134.285H18.9029Z" fill="#1DCDA1"/>
<path d="M37.2695 151.339C40.9284 153.797 44.7871 155.94 48.8132 157.733H250.792C260.087 153.593 268.49 147.588 275.602 140.148H165.947C167.546 141.821 169.211 143.421 170.936 144.944H99.964C102.588 147.261 105.352 149.398 108.241 151.339H37.2695Z" fill="#398AC7"/>
</svg>
